<?xml version="1.0" standalone="no"?>
<!DOCTYPE svg PUBLIC "-//W3C//DTD SVG 20010904//EN"
 "http://www.w3.org/TR/2001/REC-SVG-20010904/DTD/svg10.dtd">
<svg version="1.0" xmlns="http://www.w3.org/2000/svg"
 width="666.000000pt" height="266.000000pt" viewBox="0 0 666.000000 266.000000"
 preserveAspectRatio="xMidYMid meet">

<g transform="translate(0.000000,266.000000) scale(0.100000,-0.100000)"
fill="#000000" stroke="none">
<path d="M1288 1400 c-68 -17 -152 -67 -200 -118 -55 -58 -78 -102 -108 -200
-31 -103 -25 -256 14 -358 41 -106 110 -185 204 -232 71 -35 82 -37 166 -37
84 1 96 3 161 37 168 86 257 265 242 484 -6 85 -38 183 -82 254 -76 122 -266
203 -397 170z m142 -46 c43 -13 67 -29 120 -82 58 -59 71 -78 100 -157 31 -85
33 -97 34 -225 1 -127 -1 -139 -28 -203 -69 -165 -215 -235 -369 -177 -101 38
-171 117 -213 241 -55 162 -52 312 10 442 40 87 87 134 158 158 66 23 119 24
188 3z"/>
<path d="M1298 993 c7 -3 16 -2 19 1 4 3 -2 6 -13 5 -11 0 -14 -3 -6 -6z"/>
<path d="M1100 959 c-13 -23 -6 -69 10 -69 6 0 6 9 1 23 -9 24 -4 48 13 59 8
5 7 8 -1 8 -7 0 -17 -9 -23 -21z"/>
<path d="M1200 950 c-3 -38 -1 -62 6 -69 8 -9 9 5 3 54 -5 44 -6 46 -9 15z"/>
<path d="M1293 930 c0 -30 2 -43 4 -27 2 15 2 39 0 55 -2 15 -4 2 -4 -28z"/>
<path d="M1322 930 c1 -44 2 -48 5 -16 l4 39 35 -34 c34 -32 34 -33 33 -8 0
13 -3 19 -5 12 -3 -7 -19 3 -39 25 l-34 37 1 -55z"/>
<path d="M1433 935 c0 -27 2 -38 4 -22 2 15 2 37 0 50 -2 12 -4 0 -4 -28z"/>
<path d="M1470 961 c-5 -11 -10 -26 -10 -35 0 -16 26 -46 41 -46 5 0 0 9 -12
21 -21 21 -19 56 5 71 8 6 7 8 -1 8 -7 0 -17 -9 -23 -19z"/>
<path d="M1596 955 c5 -20 3 -24 -10 -19 -9 3 -16 1 -16 -5 0 -6 9 -11 20 -11
10 0 24 -8 30 -17 9 -15 10 -14 4 7 -11 41 -23 70 -29 70 -3 0 -3 -11 1 -25z"/>
<path d="M4618 1400 c-170 -43 -292 -190 -319 -382 -26 -189 25 -354 143 -463
60 -56 67 -65 46 -65 -7 0 -26 -9 -42 -19 l-28 -19 65 5 c55 5 73 2 122 -21
31 -14 72 -38 89 -53 68 -59 92 -75 131 -93 105 -46 185 -34 254 37 39 41 89
129 79 139 -3 2 -18 -16 -36 -41 -40 -57 -95 -85 -166 -85 -59 0 -147 29 -181
60 -11 9 -33 24 -49 32 l-29 15 49 7 c109 16 208 82 273 181 57 87 76 158 75
290 0 175 -38 279 -141 377 -81 78 -235 123 -335 98z m138 -45 c95 -28 190
-128 228 -238 49 -145 45 -363 -9 -467 -113 -219 -402 -209 -531 18 -45 77
-61 140 -69 256 -9 116 6 203 47 284 67 131 197 188 334 147z"/>
<path d="M1875 1390 l-30 -6 31 -8 c18 -4 40 -16 50 -28 18 -19 19 -46 22
-394 2 -245 -1 -387 -8 -414 -9 -33 -18 -43 -53 -59 l-42 -19 105 -1 105 0
-27 22 c-15 12 -32 35 -37 50 -7 18 -11 152 -11 370 l1 342 48 -145 c27 -80
75 -226 106 -325 56 -176 76 -219 93 -200 5 6 26 55 47 110 21 55 53 136 71
180 18 44 58 145 89 225 30 80 61 156 68 170 10 20 13 -49 17 -370 3 -217 7
-396 8 -397 1 -1 9 -9 18 -17 11 -12 35 -16 85 -16 71 0 85 12 29 24 -57 11
-60 31 -60 444 0 241 4 380 11 400 8 24 20 34 50 43 21 7 36 15 34 19 -6 10
-166 3 -177 -8 -4 -4 -26 -55 -49 -113 -22 -57 -55 -142 -74 -189 -18 -47 -49
-125 -68 -175 -20 -49 -46 -116 -60 -148 l-24 -58 -40 123 c-41 124 -89 273
-138 428 -35 110 -53 132 -113 140 -26 3 -60 3 -77 0z"/>
<path d="M2980 1392 c-19 -2 -43 -11 -52 -19 -16 -15 -20 -15 -36 0 -12 11
-35 17 -68 16 l-49 -1 32 -14 c58 -25 58 -23 58 -450 0 -432 3 -412 -65 -443
l-35 -16 67 -3 c37 -2 100 -1 140 0 71 3 72 4 41 16 -64 27 -63 21 -63 449 0
428 -1 421 62 448 35 14 20 22 -32 17z"/>
<path d="M3145 1390 c-23 -4 -30 -8 -17 -9 13 0 37 -14 53 -30 l29 -29 0 -386
c0 -283 -3 -392 -12 -412 -7 -16 -30 -35 -53 -45 l-40 -19 104 0 105 0 -37 34
-37 34 0 378 c0 231 4 374 9 369 13 -14 93 -147 136 -225 19 -36 61 -108 93
-160 32 -52 76 -126 99 -165 22 -38 50 -86 61 -105 11 -19 37 -63 57 -98 20
-35 42 -61 48 -59 9 3 13 120 17 440 5 472 3 452 63 474 l32 11 -30 2 c-159 8
-236 1 -166 -15 64 -14 66 -22 69 -392 2 -183 -1 -333 -5 -333 -5 0 -21 24
-36 53 -16 28 -45 80 -65 114 -72 121 -189 321 -234 398 -103 178 -128 195
-243 175z"/>
<path d="M3955 1390 l-30 -6 27 -7 c15 -4 36 -19 45 -34 16 -25 18 -62 18
-419 0 -432 3 -412 -65 -443 l-35 -16 73 -3 c40 -2 103 -2 140 0 l67 3 -38 19
c-21 11 -44 31 -50 45 -8 18 -12 138 -12 401 0 345 1 378 18 403 10 16 29 33
43 39 13 6 24 14 24 17 0 13 -85 -2 -102 -17 -16 -13 -20 -13 -35 0 -23 20
-51 25 -88 18z"/>
<path d="M117 1377 c71 -26 68 -4 68 -446 0 -441 4 -417 -69 -450 l-41 -19
166 -1 c185 -1 247 7 328 45 71 32 113 73 156 149 44 78 65 168 65 281 0 167
-35 269 -120 352 -87 84 -159 102 -400 101 -154 0 -180 -3 -153 -12z m369 -30
c102 -27 191 -136 214 -265 14 -79 11 -228 -6 -309 -17 -82 -66 -173 -115
-212 -54 -44 -109 -61 -195 -61 -67 0 -74 2 -93 26 -20 26 -21 37 -21 404 0
367 1 378 21 404 18 23 27 26 83 26 34 0 84 -6 112 -13z"/>
<path d="M5186 1379 c17 -5 39 -18 50 -30 18 -19 19 -44 25 -328 5 -276 8
-312 27 -371 25 -77 65 -128 128 -165 53 -31 135 -43 187 -26 53 18 121 83
148 143 23 51 24 63 29 378 6 360 8 369 69 394 35 15 33 15 -79 15 -110 0
-113 0 -76 -14 46 -16 53 -26 62 -80 11 -78 -1 -607 -16 -645 -23 -60 -69
-119 -110 -140 -84 -43 -195 -11 -238 67 -42 77 -50 147 -51 468 -1 291 -2
300 -23 322 -19 20 -31 23 -92 22 -59 -1 -66 -2 -40 -10z"/>
<path d="M5976 1379 c17 -5 39 -18 50 -30 18 -20 19 -41 19 -419 0 -442 4
-418 -68 -454 -30 -14 -12 -16 259 -16 l290 0 26 92 c14 51 25 94 23 96 -1 1
-18 -23 -36 -54 -50 -84 -75 -94 -234 -94 -98 0 -136 4 -151 14 -18 14 -19 30
-19 416 0 386 1 402 19 416 24 17 217 20 264 3 33 -11 74 -59 97 -111 8 -18
14 -26 15 -17 0 17 -18 124 -26 152 -5 16 -27 17 -282 16 -181 0 -266 -4 -246
-10z"/>
<path d="M6346 1042 c-9 -27 -67 -78 -100 -89 l-30 -9 47 -23 c32 -15 55 -36
72 -64 l25 -42 0 123 c0 120 -3 140 -14 104z"/>
</g>
</svg>
