<?xml version="1.0" encoding="UTF-8" standalone="no"?>
<!DOCTYPE svg PUBLIC "-//W3C//DTD SVG 1.1//EN" "http://www.w3.org/Graphics/SVG/1.1/DTD/svg11.dtd">
<svg xmlns="http://www.w3.org/2000/svg" xmlns:xlink="http://www.w3.org/1999/xlink" version="1.1" width="586.021pt" height="168.585pt" viewBox="0 0 586.021 168.585">
<g enable-background="new">
<clipPath id="cp0">
<path transform="matrix(1,0,0,-1,0,168.585)" d="M 0 168.585 L 586.021 168.585 L 586.021 0 L 0 0 Z "/>
</clipPath>
<g clip-path="url(#cp0)">
<path transform="matrix(1,0,0,-1,248.4211,33.65181)" d="M 0 0 C -1.115 -1.279 -2.503 -2.272 -4.162 -2.979 C -5.822 -3.686 -7.576 -4.039 -9.426 -4.039 C -11.602 -4.066 -13.574 -3.672 -15.342 -2.856 C -17.111 -2.04 -18.552 -.952 -19.667 .408 C -20.783 1.768 -21.64 3.298 -22.238 4.998 C -22.837 6.698 -23.136 8.473 -23.136 10.323 C -23.136 12.146 -22.85 13.887 -22.279 15.546 C -21.708 17.205 -20.878 18.715 -19.79 20.076 C -18.702 21.436 -17.26 22.517 -15.465 23.32 C -13.669 24.122 -11.656 24.523 -9.426 24.523 C -5.318 24.523 -2.177 23.435 0 21.259 L 0 17.587 C -.489 19.409 -1.571 20.885 -3.244 22.014 C -4.917 23.142 -6.977 23.693 -9.426 23.667 C -11.139 23.639 -12.711 23.224 -14.139 22.422 C -15.567 21.619 -16.73 20.579 -17.627 19.301 C -18.525 18.022 -19.212 16.587 -19.688 14.995 C -20.164 13.404 -20.388 11.779 -20.361 10.12 C -20.307 7.889 -19.79 5.754 -18.811 3.713 C -17.831 1.673 -16.499 .013 -14.812 -1.265 C -13.125 -2.544 -11.33 -3.183 -9.426 -3.183 C -5.155 -3.183 -2.013 -1.714 0 1.224 Z "/>
<path transform="matrix(1,0,0,-1,248.4211,33.65181)" stroke-width=".487" stroke-linecap="butt" stroke-miterlimit="10" stroke-linejoin="miter" fill="none" stroke="#000000" d="M 0 0 C -1.115 -1.279 -2.503 -2.272 -4.162 -2.979 C -5.822 -3.686 -7.576 -4.039 -9.426 -4.039 C -11.602 -4.066 -13.574 -3.672 -15.342 -2.856 C -17.111 -2.04 -18.552 -.952 -19.667 .408 C -20.783 1.768 -21.64 3.298 -22.238 4.998 C -22.837 6.698 -23.136 8.473 -23.136 10.323 C -23.136 12.146 -22.85 13.887 -22.279 15.546 C -21.708 17.205 -20.878 18.715 -19.79 20.076 C -18.702 21.436 -17.26 22.517 -15.465 23.32 C -13.669 24.122 -11.656 24.523 -9.426 24.523 C -5.318 24.523 -2.177 23.435 0 21.259 L 0 17.587 C -.489 19.409 -1.571 20.885 -3.244 22.014 C -4.917 23.142 -6.977 23.693 -9.426 23.667 C -11.139 23.639 -12.711 23.224 -14.139 22.422 C -15.567 21.619 -16.73 20.579 -17.627 19.301 C -18.525 18.022 -19.212 16.587 -19.688 14.995 C -20.164 13.404 -20.388 11.779 -20.361 10.12 C -20.307 7.889 -19.79 5.754 -18.811 3.713 C -17.831 1.673 -16.499 .013 -14.812 -1.265 C -13.125 -2.544 -11.33 -3.183 -9.426 -3.183 C -5.155 -3.183 -2.013 -1.714 0 1.224 L 0 0 Z "/>
<path transform="matrix(1,0,0,-1,257.4386,9.128403)" d="M 0 0 L 0 -27.706 L 17.383 -27.706 L 17.383 -28.563 L -2.53 -28.563 L -2.53 0 Z "/>
<path transform="matrix(1,0,0,-1,257.4386,9.128403)" stroke-width=".487" stroke-linecap="butt" stroke-miterlimit="10" stroke-linejoin="miter" fill="none" stroke="#000000" d="M 0 0 L 0 -27.706 L 17.383 -27.706 L 17.383 -28.563 L -2.53 -28.563 L -2.53 0 L 0 0 Z "/>
<path transform="matrix(1,0,0,-1,0,168.585)" d="M 282.37 130.894 L 279.84 130.894 L 279.84 159.457 L 282.37 159.457 Z "/>
<path transform="matrix(1,0,0,-1,0,168.585)" stroke-width=".487" stroke-linecap="butt" stroke-miterlimit="10" stroke-linejoin="miter" fill="none" stroke="#000000" d="M 282.37 130.894 L 279.84 130.894 L 279.84 159.457 L 282.37 159.457 Z "/>
<path transform="matrix(1,0,0,-1,291.7946,37.6913)" d="M 0 0 L -1.224 0 L -1.224 28.563 L 0 27.176 L 0 27.135 L 18.321 5.386 L 18.321 28.563 L 19.545 28.563 L 19.545 0 L 18.321 1.428 L 0 23.177 Z "/>
<path transform="matrix(1,0,0,-1,291.7946,37.6913)" stroke-width=".487" stroke-linecap="butt" stroke-miterlimit="10" stroke-linejoin="miter" fill="none" stroke="#000000" d="M 0 0 L -1.224 0 L -1.224 28.563 L 0 27.176 L 0 27.135 L 18.321 5.386 L 18.321 28.563 L 19.545 28.563 L 19.545 0 L 18.321 1.428 L 0 23.177 L 0 0 Z "/>
<path transform="matrix(1,0,0,-1,0,168.585)" d="M 322.031 130.894 L 319.501 130.894 L 319.501 159.457 L 322.031 159.457 Z "/>
<path transform="matrix(1,0,0,-1,0,168.585)" stroke-width=".487" stroke-linecap="butt" stroke-miterlimit="10" stroke-linejoin="miter" fill="none" stroke="#000000" d="M 322.031 130.894 L 319.501 130.894 L 319.501 159.457 L 322.031 159.457 Z "/>
<path transform="matrix(1,0,0,-1,351.9799,33.65181)" d="M 0 0 C -1.115 -1.279 -2.503 -2.272 -4.162 -2.979 C -5.822 -3.686 -7.576 -4.039 -9.426 -4.039 C -11.602 -4.066 -13.574 -3.672 -15.342 -2.856 C -17.111 -2.04 -18.552 -.952 -19.668 .408 C -20.783 1.768 -21.64 3.298 -22.238 4.998 C -22.837 6.698 -23.136 8.473 -23.136 10.323 C -23.136 12.146 -22.85 13.887 -22.279 15.546 C -21.708 17.205 -20.878 18.715 -19.79 20.076 C -18.702 21.436 -17.26 22.517 -15.465 23.32 C -13.669 24.122 -11.656 24.523 -9.426 24.523 C -5.318 24.523 -2.177 23.435 0 21.259 L 0 17.587 C -.49 19.409 -1.571 20.885 -3.244 22.014 C -4.917 23.142 -6.977 23.693 -9.426 23.667 C -11.139 23.639 -12.711 23.224 -14.139 22.422 C -15.567 21.619 -16.73 20.579 -17.627 19.301 C -18.525 18.022 -19.212 16.587 -19.688 14.995 C -20.164 13.404 -20.388 11.779 -20.361 10.12 C -20.307 7.889 -19.79 5.754 -18.811 3.713 C -17.831 1.673 -16.499 .013 -14.812 -1.265 C -13.125 -2.544 -11.33 -3.183 -9.426 -3.183 C -5.155 -3.183 -2.013 -1.714 0 1.224 Z "/>
<path transform="matrix(1,0,0,-1,351.9799,33.65181)" stroke-width=".487" stroke-linecap="butt" stroke-miterlimit="10" stroke-linejoin="miter" fill="none" stroke="#000000" d="M 0 0 C -1.115 -1.279 -2.503 -2.272 -4.162 -2.979 C -5.822 -3.686 -7.576 -4.039 -9.426 -4.039 C -11.602 -4.066 -13.574 -3.672 -15.342 -2.856 C -17.111 -2.04 -18.552 -.952 -19.668 .408 C -20.783 1.768 -21.64 3.298 -22.238 4.998 C -22.837 6.698 -23.136 8.473 -23.136 10.323 C -23.136 12.146 -22.85 13.887 -22.279 15.546 C -21.708 17.205 -20.878 18.715 -19.79 20.076 C -18.702 21.436 -17.26 22.517 -15.465 23.32 C -13.669 24.122 -11.656 24.523 -9.426 24.523 C -5.318 24.523 -2.177 23.435 0 21.259 L 0 17.587 C -.49 19.409 -1.571 20.885 -3.244 22.014 C -4.917 23.142 -6.977 23.693 -9.426 23.667 C -11.139 23.639 -12.711 23.224 -14.139 22.422 C -15.567 21.619 -16.73 20.579 -17.627 19.301 C -18.525 18.022 -19.212 16.587 -19.688 14.995 C -20.164 13.404 -20.388 11.779 -20.361 10.12 C -20.307 7.889 -19.79 5.754 -18.811 3.713 C -17.831 1.673 -16.499 .013 -14.812 -1.265 C -13.125 -2.544 -11.33 -3.183 -9.426 -3.183 C -5.155 -3.183 -2.013 -1.714 0 1.224 L 0 0 Z "/>
<path transform="matrix(1,0,0,-1,371.1983,26.837403)" d="M 0 0 L -5.712 13.873 C -6.746 11.344 -8.379 7.426 -10.609 2.122 C -6.447 3.727 -2.911 3.02 0 0 M -16.036 -10.854 L -16.811 -10.854 L -5.059 17.709 L 7.182 -10.854 L 4.489 -10.854 L 1.673 -3.958 C 1.292 -3.251 .877 -2.578 .429 -1.938 C -.02 -1.299 -.639 -.646 -1.428 .02 C -2.217 .687 -3.054 1.19 -3.937 1.53 C -4.822 1.87 -5.896 1.999 -7.161 1.918 C -8.426 1.836 -9.752 1.482 -11.139 .857 C -13.316 -4.312 -14.948 -8.216 -16.036 -10.854 "/>
<path transform="matrix(1,0,0,-1,371.1983,26.837403)" stroke-width=".487" stroke-linecap="butt" stroke-miterlimit="10" stroke-linejoin="miter" fill="none" stroke="#000000" d="M 0 0 L -5.712 13.873 C -6.746 11.344 -8.379 7.426 -10.609 2.122 C -6.447 3.727 -2.911 3.02 0 0 Z M -16.036 -10.854 L -16.811 -10.854 L -5.059 17.709 L 7.182 -10.854 L 4.489 -10.854 L 1.673 -3.958 C 1.292 -3.251 .877 -2.578 .429 -1.938 C -.02 -1.299 -.639 -.646 -1.428 .02 C -2.217 .687 -3.054 1.19 -3.937 1.53 C -4.822 1.87 -5.896 1.999 -7.161 1.918 C -8.426 1.836 -9.752 1.482 -11.139 .857 C -13.316 -4.312 -14.948 -8.216 -16.036 -10.854 Z "/>
<path transform="matrix(1,0,0,-1,0,168.585)" d="M 279.428 164.714 L 288.725 164.714 L 288.725 163.09001 L 279.428 163.09001 Z "/>
<path transform="matrix(1,0,0,-1,52.2773,140.27681)" d="M 0 0 C 4.197 2.886 7.432 7.274 9.704 13.163 C 11.976 19.052 13.111 26.451 13.111 35.361 C 13.111 43.544 11.923 50.303 9.546 55.637 C 7.169 60.972 3.859 64.939 -.384 67.539 C -4.626 70.139 -9.576 71.44 -15.233 71.44 L -18.573 71.44 C -20.499 71.44 -21.981 71.019 -23.019 70.177 C -24.057 69.336 -24.764 68.017 -25.14 66.22 C -25.517 64.422 -25.704 62.07 -25.704 59.165 L -25.704 8.116 C -25.704 4.024 -25.291 .994 -24.463 -.975 C -23.636 -2.945 -22.033 -4.026 -19.656 -4.216 L -15.143 -4.216 C -9.246 -4.293 -4.197 -2.888 0 0 M -34.528 -3.556 C -33.58 -2.467 -32.964 -.986 -32.677 .889 C -32.392 2.762 -32.249 5.171 -32.249 8.116 L -32.249 59.165 C -32.249 62.07 -32.392 64.461 -32.677 66.335 C -32.964 68.208 -33.58 69.699 -34.528 70.809 C -35.476 71.918 -37.914 73.125 -41.758 73.275 L -41.758 73.849 L -15.233 73.849 C -8.132 73.849 -1.949 72.357 3.318 69.375 C 8.583 66.392 12.675 62.042 15.594 56.326 C 18.512 50.608 19.972 43.697 19.972 35.59 C 19.972 26.643 18.565 19.023 15.752 12.734 C 12.938 6.443 8.906 1.643 3.656 -1.664 C -1.595 -4.972 -7.861 -6.625 -15.143 -6.625 L -42.731 -6.625 L -42.731 -6.051 C -37.956 -5.738 -35.476 -4.646 -34.528 -3.556 "/>
<path transform="matrix(1,0,0,-1,150.5194,106.29191)" d="M 0 0 C -.602 8.604 -2.422 15.735 -5.461 21.394 C -8.501 27.053 -12.276 31.278 -16.79 34.071 C -21.303 36.861 -25.923 38.257 -30.646 38.257 C -34.077 38.257 -37.364 37.541 -40.508 36.107 C -43.653 34.673 -46.466 32.522 -48.948 29.654 C -51.431 26.786 -53.394 23.191 -54.838 18.871 C -56.283 14.549 -57.005 9.521 -57.005 3.785 C -57.005 2.294 -56.945 .803 -56.824 -.689 C -56.223 -9.331 -54.395 -16.482 -51.34 -22.141 C -48.287 -27.801 -44.502 -32.026 -39.989 -34.816 C -35.476 -37.609 -30.857 -39.004 -26.133 -39.004 C -22.703 -39.004 -19.416 -38.287 -16.271 -36.853 C -13.127 -35.42 -10.321 -33.259 -7.853 -30.372 C -5.386 -27.485 -3.43 -23.89 -1.986 -19.588 C -.541 -15.286 .181 -10.248 .181 -4.475 C .181 -2.983 .12 -1.492 0 0 M -60.525 17.264 C -58.539 22.427 -55.884 26.766 -52.559 30.285 C -49.235 33.803 -45.481 36.47 -41.298 38.286 C -37.116 40.102 -32.813 41.011 -28.39 41.011 C -23.966 41.011 -19.656 40.102 -15.459 38.286 C -11.261 36.47 -7.5 33.803 -4.175 30.285 C -.85 26.766 1.798 22.427 3.769 17.264 C 5.739 12.102 6.725 6.195 6.725 -.46 C 6.725 -7.151 5.732 -13.059 3.746 -18.183 C 1.761 -23.307 -.903 -27.619 -4.243 -31.117 C -7.583 -34.616 -11.351 -37.265 -15.549 -39.062 C -19.746 -40.858 -24.057 -41.757 -28.48 -41.757 C -32.873 -41.757 -37.153 -40.868 -41.321 -39.09 C -45.488 -37.312 -49.235 -34.674 -52.559 -31.175 C -55.884 -27.675 -58.539 -23.355 -60.525 -18.211 C -62.511 -13.069 -63.504 -7.151 -63.504 -.46 C -63.504 6.195 -62.511 12.102 -60.525 17.264 "/>
<path transform="matrix(1,0,0,-1,441.082,106.29191)" d="M 0 0 C -.602 8.604 -2.422 15.735 -5.461 21.394 C -8.501 27.053 -12.276 31.278 -16.79 34.071 C -21.303 36.861 -25.923 38.257 -30.646 38.257 C -34.077 38.257 -37.364 37.541 -40.508 36.107 C -43.653 34.673 -46.466 32.522 -48.948 29.654 C -51.431 26.786 -53.394 23.191 -54.838 18.871 C -56.283 14.549 -57.005 9.521 -57.005 3.785 C -57.005 2.294 -56.945 .803 -56.824 -.689 C -56.223 -9.331 -54.395 -16.482 -51.34 -22.141 C -48.287 -27.801 -44.502 -32.026 -39.989 -34.816 C -35.476 -37.609 -30.857 -39.004 -26.133 -39.004 C -22.703 -39.004 -19.416 -38.287 -16.271 -36.853 C -13.127 -35.42 -10.321 -33.259 -7.853 -30.372 C -5.386 -27.485 -3.43 -23.89 -1.986 -19.588 C -.541 -15.286 .181 -10.248 .181 -4.475 C .181 -2.983 .12 -1.492 0 0 M -60.525 17.264 C -58.539 22.427 -55.884 26.766 -52.559 30.285 C -49.235 33.803 -45.481 36.47 -41.298 38.286 C -37.116 40.102 -32.813 41.011 -28.39 41.011 C -23.966 41.011 -19.656 40.102 -15.459 38.286 C -11.261 36.47 -7.5 33.803 -4.175 30.285 C -.85 26.766 1.798 22.427 3.769 17.264 C 5.739 12.102 6.725 6.195 6.725 -.46 C 6.725 -7.151 5.732 -13.059 3.746 -18.183 C 1.761 -23.307 -.903 -27.619 -4.243 -31.117 C -7.583 -34.616 -11.351 -37.265 -15.549 -39.062 C -19.746 -40.858 -24.057 -41.757 -28.48 -41.757 C -32.873 -41.757 -37.153 -40.868 -41.321 -39.09 C -45.488 -37.312 -49.235 -34.674 -52.559 -31.175 C -55.884 -27.675 -58.539 -23.355 -60.525 -18.211 C -62.511 -13.069 -63.504 -7.151 -63.504 -.46 C -63.504 6.195 -62.511 12.102 -60.525 17.264 "/>
<path transform="matrix(1,0,0,-1,239.1566,67.0015)" d="M 0 0 C -4.574 -.15 -6.328 -1.358 -7.275 -2.467 C -8.223 -3.576 -8.84 -5.067 -9.126 -6.941 C -9.412 -8.815 -9.555 -11.205 -9.555 -14.11 L -9.555 -65.159 C -9.555 -68.105 -9.412 -70.513 -9.126 -72.387 C -8.84 -74.261 -8.223 -75.742 -7.275 -76.832 C -6.328 -77.921 -5.679 -79.07 0 -79.326 L 0 -79.901 L -11.721 -79.901 C -12.925 -79.901 -13.948 -79.366 -14.79 -78.294 C -15.633 -77.225 -16.054 -75.924 -16.054 -74.394 L -16.054 -6.08 L -41.691 -70.837 L -41.826 -70.837 C -42.94 -70.837 -43.782 -70.112 -44.354 -68.658 L -63.626 -9.637 L -63.626 -66.536 C -63.626 -70.819 -63.152 -73.869 -62.204 -75.684 C -61.257 -77.501 -59.519 -78.715 -56.991 -79.326 L -56.991 -79.901 L -75.121 -79.901 L -75.121 -79.326 C -68.866 -78.815 -68.02 -77.501 -67.056 -75.684 C -66.094 -73.869 -65.612 -70.819 -65.612 -66.536 L -65.612 -12.734 C -65.612 -8.489 -66.094 -5.449 -67.056 -3.613 C -68.02 -1.779 -70.737 -.348 -75.121 0 L -75.121 .573 L -65.116 .573 C -63.642 .573 -62.295 .095 -61.076 -.86 C -59.857 -1.817 -58.917 -3.136 -58.255 -4.818 L -40.382 -60.743 L -16.054 .573 L 0 .573 Z "/>
<path transform="matrix(1,0,0,-1,495.9173,66.42821)" d="M 0 0 L 21.231 0 L 21.231 -.573 C 15.652 -.573 14.052 -2.352 13.12 -4.187 C 12.187 -6.022 11.721 -9.062 11.721 -13.307 L 11.721 -50.819 C 11.721 -56.479 11.089 -61.268 9.825 -65.188 C 8.562 -69.108 6.892 -72.282 4.815 -74.709 C 2.739 -77.138 .422 -78.897 -2.135 -79.986 C -4.693 -81.076 -7.251 -81.621 -9.808 -81.621 C -12.547 -81.621 -15.315 -81.066 -18.113 -79.958 C -20.911 -78.849 -23.484 -77.052 -25.831 -74.565 C -28.178 -72.08 -30.082 -68.782 -31.54 -64.672 C -33 -60.562 -33.729 -55.485 -33.729 -49.442 L -33.729 -14.684 C -33.729 -11.778 -33.873 -9.388 -34.158 -7.514 C -34.445 -5.641 -35.061 -4.149 -36.009 -3.04 C -36.957 -1.931 -38.861 -.573 -43.239 -.573 L -43.239 0 L -32.646 0 C -31.142 0 -29.856 -.67 -28.787 -2.007 C -27.72 -3.346 -27.185 -4.971 -27.185 -6.883 L -27.185 -49.558 C -27.185 -56.326 -26.456 -61.87 -24.996 -66.191 C -23.537 -70.513 -21.461 -73.706 -18.767 -75.771 C -16.075 -77.835 -12.848 -78.868 -9.086 -78.868 C -5.656 -78.868 -2.534 -77.826 .279 -75.742 C 3.093 -73.658 5.342 -70.532 7.027 -66.364 C 8.712 -62.196 9.555 -56.976 9.555 -50.705 L 9.555 -13.307 C 9.555 -9.062 9.065 -6.022 8.088 -4.187 C 7.109 -2.352 5.362 -.573 0 -.573 Z "/>
<path transform="matrix(1,0,0,-1,575.9334,131.1286)" d="M 0 0 L .542 0 L -3.43 -15.774 L -54.779 -15.774 L -54.779 -15.199 C -49.765 -15.199 -48.497 -13.794 -47.549 -12.705 C -46.602 -11.615 -45.985 -10.134 -45.699 -8.26 C -45.413 -6.386 -45.27 -3.977 -45.27 -1.032 L -45.27 50.017 C -45.27 52.922 -45.413 55.312 -45.699 57.187 C -45.985 59.06 -46.602 60.551 -47.549 61.66 C -48.497 62.769 -50.247 64.127 -54.779 64.127 L -54.779 64.7 L -6.138 64.7 L -3.069 49.099 L -3.611 49.099 C -4.513 51.394 -5.559 53.535 -6.747 55.523 C -7.937 57.511 -9.463 59.137 -11.329 60.399 C -13.195 61.66 -15.602 62.291 -18.55 62.291 L -31.594 62.291 C -33.52 62.291 -35.002 61.87 -36.04 61.029 C -37.078 60.188 -37.785 58.869 -38.161 57.072 C -38.538 55.274 -38.726 52.922 -38.726 50.017 L -38.726 47.608 L -38.726 26.787 L -38.726 24.263 L -38.726 4.589 L -38.726 -1.032 C -38.726 -3.977 -38.538 -6.348 -38.161 -8.145 C -37.785 -9.943 -37.078 -11.262 -36.04 -12.102 C -35.002 -12.944 -33.52 -13.365 -31.594 -13.365 L -15.842 -13.365 C -12.893 -13.365 -10.411 -12.725 -8.395 -11.442 C -6.379 -10.162 -4.702 -8.518 -3.362 -6.51 C -2.024 -4.503 -.903 -2.333 0 0 "/>
<path transform="matrix(1,0,0,-1,556.9317,95.049907)" d="M 0 0 L .451 0 L .451 -21.051 L 0 -21.051 C -.662 -18.03 -2.137 -15.601 -4.423 -13.766 C -6.057 -12.455 -7.263 -11.392 -11.454 -10.975 C -11.882 -10.932 -11.883 -10.054 -11.456 -10.003 C -6.951 -9.464 -6.03 -8.516 -4.4 -7.227 C -2.129 -5.431 -.662 -3.022 0 0 "/>
<path transform="matrix(1,0,0,-1,387.1844,149.267)" d="M 0 0 C 0 0 10.401 8.476 27.498 -6.44 C 27.498 -6.44 53.077 -31.733 66.051 2.452 L 65.439 3.137 C 65.439 3.137 56.532 -19.241 33.192 -4.238 C 33.192 -4.238 11.673 12.314 0 0 "/>
<path transform="matrix(1,0,0,-1,281.926,142.6857)" d="M 0 0 C .963 1.816 1.444 4.865 1.444 9.148 L 1.444 62.951 C 1.444 67.195 .963 70.235 0 72.071 C -.964 73.906 -2.865 75.684 -8.065 75.684 L -8.065 76.258 L 2.979 76.258 C 5.777 76.258 8.139 74.766 10.065 71.784 L 46.624 9.607 L 46.624 62.951 C 46.624 67.195 46.135 70.235 45.157 72.071 C 44.179 73.906 42.406 75.684 37.069 75.684 L 37.069 76.258 L 58.12 76.258 L 58.12 75.684 C 53.178 75.684 50.941 73.906 50.009 72.071 C 49.076 70.235 48.61 67.195 48.61 62.951 L 48.61 -4.216 L 46.624 -4.216 L 3.43 69.145 L 3.43 9.148 C 3.43 4.865 3.904 1.816 4.852 0 C 5.8 -1.817 7.537 -3.031 10.065 -3.642 L 10.065 -4.216 L -8.065 -4.216 L -8.065 -3.642 C -2.1 -3.642 -.964 -1.817 0 0 "/>
<path transform="matrix(1,0,0,-1,260.5028,73.94201)" d="M 0 0 C .286 1.873 .903 3.365 1.851 4.474 C 2.799 5.583 3.59 6.705 8.107 6.94 L 8.107 7.514 L 1.989 7.514 C -3.502 7.514 -3.701 2.207 -3.701 2.207 C -3.701 6.526 -6.996 7.376 -8.839 7.514 L -10.05 7.514 L -15.509 7.514 L -15.509 6.94 C -11.547 6.705 -10.2 5.583 -9.253 4.474 C -8.305 3.365 -7.688 1.873 -7.402 0 C -7.116 -1.874 -6.973 -4.265 -6.973 -7.17 L -6.973 -58.219 C -6.973 -61.164 -7.116 -63.573 -7.402 -65.446 C -7.688 -67.32 -8.305 -68.801 -9.253 -69.891 C -10.2 -70.981 -11.765 -71.716 -15.509 -72.386 L -15.509 -72.96 L 8.107 -72.96 L 8.107 -72.386 C 5.038 -72.058 3.74 -71.611 2.981 -71.066 C 2.506 -70.694 2.194 -70.285 1.851 -69.891 C .903 -68.801 .286 -67.32 0 -65.446 C -.286 -63.573 -.429 -61.164 -.429 -58.219 L -.429 -7.17 C -.429 -4.265 -.286 -1.874 0 0 "/>
<path transform="matrix(1,0,0,-1,360.7231,73.94201)" d="M 0 0 C .286 1.873 .903 3.365 1.851 4.474 C 2.799 5.583 3.59 6.705 8.107 6.94 L 8.107 7.514 L 1.989 7.514 C -3.502 7.514 -3.701 2.207 -3.701 2.207 C -3.701 6.526 -6.996 7.376 -8.839 7.514 L -10.05 7.514 L -15.509 7.514 L -15.509 6.94 C -11.547 6.705 -10.2 5.583 -9.253 4.474 C -8.305 3.365 -7.688 1.873 -7.402 0 C -7.116 -1.874 -6.973 -4.265 -6.973 -7.17 L -6.973 -58.219 C -6.973 -61.164 -7.116 -63.573 -7.402 -65.446 C -7.688 -67.32 -8.305 -68.801 -9.253 -69.891 C -10.2 -70.981 -11.766 -71.716 -15.509 -72.386 L -15.509 -72.96 L 8.107 -72.96 L 8.107 -72.386 C 5.038 -72.058 3.74 -71.611 2.981 -71.066 C 2.506 -70.694 2.193 -70.285 1.851 -69.891 C .903 -68.801 .286 -67.32 0 -65.446 C -.286 -63.573 -.429 -61.164 -.429 -58.219 L -.429 -7.17 C -.429 -4.265 -.286 -1.874 0 0 "/>
</g>
</g>
</svg>
